<?xml version="1.0" encoding="iso-8859-1"?>
<!-- Generator: Adobe Illustrator 21.0.0, SVG Export Plug-In . SVG Version: 6.00 Build 0)  -->
<svg version="1.1" id="Capa_1" xmlns="http://www.w3.org/2000/svg" xmlns:xlink="http://www.w3.org/1999/xlink" x="0px" y="0px"
	 viewBox="0 0 512 512" style="enable-background:new 0 0 512 512;" xml:space="preserve">
<g id="XMLID_330_">
	<g id="XMLID_331_">
		<g id="XMLID_332_">
			<g id="XMLID_333_">
				<path style="fill:#5F9EEB;" d="M186.341,229.59c-10.721,0.545-21.276,4.906-29.439,13.069L43.403,356.158
					c-17.521,17.521-17.521,46.036,0,63.556l48.883,48.883c17.521,17.521,46.036,17.521,63.556,0l113.499-113.499
					c17.521-17.521,17.521-46.036,0-63.557l-48.883-48.883C211.1,233.3,198.615,228.946,186.341,229.59z M244.09,316.793
					c3.597,3.597,3.597,9.457,0,13.054L130.591,443.345c-3.597,3.597-9.449,3.589-13.046-0.008l-48.883-48.883
					c-3.597-3.597-3.604-9.449-0.008-13.046L182.154,267.91c1.196-1.196,2.65-1.999,4.187-2.4c3.074-0.788,6.474,0.008,8.866,2.4
					L244.09,316.793z"/>
			</g>
			<path style="fill:#3A82D0;" d="M220.459,242.658l48.883,48.883c17.521,17.521,17.521,46.036,0,63.557l-83,83v-50.503
				l57.749-57.749c3.597-3.597,3.597-9.457,0-13.054l-48.883-48.883c-2.393-2.393-5.792-3.188-8.866-2.4l0-35.92
				C198.615,228.946,211.1,233.3,220.459,242.658z"/>
			<g id="XMLID_334_">
				<path style="fill:#EB5777;" d="M363.268,37.61c-2.514,1.651-4.899,3.581-7.11,5.792L242.659,156.902
					c-17.521,17.521-17.521,46.036,0,63.557l48.883,48.883c17.521,17.521,46.036,17.521,63.557,0l113.499-113.499
					c17.521-17.521,17.521-46.036,0-63.556l-48.883-48.883C404.405,28.093,380.698,26.162,363.268,37.61z M443.338,117.544
					c3.597,3.597,3.604,9.449,0.008,13.046L329.847,244.089c-3.597,3.597-9.457,3.597-13.054,0l-48.883-48.883
					c-3.597-3.597-3.597-9.457,0-13.054L381.41,68.654c3.597-3.597,9.449-3.589,13.046,0.008L443.338,117.544z"/>
			</g>
			<path style="fill:#CE3F63;" d="M419.715,43.403l48.883,48.883c17.521,17.521,17.521,46.036,0,63.556L363.275,261.164l0-50.503
				l80.07-80.07c3.597-3.597,3.589-9.449-0.008-13.046l-48.883-48.883c-3.597-3.597-9.449-3.604-13.046-0.008l-18.142,18.142V37.61
				C380.698,26.162,404.405,28.093,419.715,43.403z"/>
		</g>
		<g id="XMLID_336_">
			<path style="fill:#D3D8DF;" d="M207.291,304.709L207.291,304.709c6.974,6.974,18.282,6.974,25.257,0l72.162-72.162
				c6.974-6.974,6.974-18.282,0-25.257l0,0c-6.974-6.974-18.282-6.974-25.257,0l-72.162,72.162
				C200.317,286.427,200.317,297.734,207.291,304.709z"/>
		</g>
	</g>
	<g id="XMLID_338_">
		<g id="XMLID_339_">
			<path id="XMLID_340_" style="fill:#EB5777;" d="M444.326,233.832c-1.919,0-3.839-0.732-5.304-2.196
				c-2.929-2.93-2.929-7.678,0-10.607l43.16-43.16c2.93-2.928,7.678-2.928,10.607,0c2.929,2.93,2.929,7.678,0,10.607l-43.16,43.16
				C448.165,233.099,446.245,233.832,444.326,233.832z"/>
			<path id="XMLID_341_" style="fill:#EB5777;" d="M493.193,218.993c-1.919,0-3.839-0.732-5.304-2.196
				c-2.929-2.93-2.929-7.678,0-10.607l11.308-11.308c2.93-2.928,7.678-2.928,10.607,0c2.929,2.93,2.929,7.678,0,10.607
				l-11.308,11.308C497.031,218.26,495.112,218.993,493.193,218.993z"/>
		</g>
		<g id="XMLID_342_">
			<path id="XMLID_343_" style="fill:#5F9EEB;" d="M24.514,336.328c-1.919,0-3.839-0.732-5.304-2.196
				c-2.929-2.93-2.929-7.678,0-10.607l43.16-43.16c2.93-2.928,7.678-2.928,10.607,0c2.929,2.93,2.929,7.678,0,10.607l-43.16,43.16
				C28.353,335.595,26.433,336.328,24.514,336.328z"/>
			<path id="XMLID_344_" style="fill:#5F9EEB;" d="M7.5,319.314c-1.919,0-3.839-0.732-5.304-2.196c-2.929-2.93-2.929-7.678,0-10.607
				l11.308-11.308c2.93-2.928,7.678-2.928,10.607,0c2.929,2.93,2.929,7.678,0,10.607l-11.308,11.308
				C11.339,318.582,9.419,319.314,7.5,319.314z"/>
		</g>
	</g>
</g>
<g>
</g>
<g>
</g>
<g>
</g>
<g>
</g>
<g>
</g>
<g>
</g>
<g>
</g>
<g>
</g>
<g>
</g>
<g>
</g>
<g>
</g>
<g>
</g>
<g>
</g>
<g>
</g>
<g>
</g>
</svg>
