<?xml version="1.0" encoding="iso-8859-1"?>
<!-- Generator: Adobe Illustrator 21.1.0, SVG Export Plug-In . SVG Version: 6.00 Build 0)  -->
<svg version="1.1" id="Layer_1" xmlns="http://www.w3.org/2000/svg" xmlns:xlink="http://www.w3.org/1999/xlink" x="0px" y="0px"
	 viewBox="0 0 100.75 100.748" style="enable-background:new 0 0 100.75 100.748;" xml:space="preserve">
<path d="M93.827,40.235H83.568c-3.29-11.576-12.263-20.659-23.803-24.09V6.196c0-0.803-0.65-1.453-1.453-1.453H41.69
	c-0.803,0-1.453,0.65-1.453,1.453v9.778C28.395,19.263,19.195,28.41,15.836,40.235H6.173c-0.803,0-1.453,0.65-1.453,1.453v16.621
	c0,0.803,0.65,1.453,1.453,1.453h9.72c3.372,11.59,12.438,20.629,24.044,23.97v10.067c0,0.803,0.65,1.453,1.453,1.453h16.623
	c0.803,0,1.453-0.65,1.453-1.453V83.732c11.607-3.339,20.671-12.375,24.042-23.971h10.319c0.803,0,1.453-0.65,1.453-1.453V41.688
	C95.28,40.885,94.63,40.235,93.827,40.235z M80.547,40.235h-3.346c-0.803,0-1.453,0.65-1.453,1.453v6.855H59.763v-6.855
	c0-0.803-0.65-1.453-1.453-1.453h-7.155V24.268h7.158c0.803,0,1.453-0.65,1.453-1.453v-3.638
	C69.694,22.42,77.438,30.267,80.547,40.235z M49.73,56.855c-0.01,0-0.019-0.003-0.029-0.003s-0.019,0.003-0.029,0.003H43.14V43.141
	h13.716v13.714H49.73z M43.143,7.649h13.716v13.713H43.143V7.649z M40.237,18.99v3.825c0,0.803,0.65,1.453,1.453,1.453h6.558v15.967
	h-6.561c-0.803,0-1.453,0.65-1.453,1.453v6.855H24.249v-6.855c0-0.803-0.65-1.453-1.453-1.453h-3.939
	C22.038,30.026,30.01,22.104,40.237,18.99z M7.626,43.141h9.301c0.001,0,0.003,0,0.004,0c0.001,0,0.002,0,0.003,0h4.409v13.714
	H7.626V43.141z M18.919,59.762h3.877c0.803,0,1.453-0.65,1.453-1.453v-6.859h15.985v6.859c0,0.803,0.65,1.453,1.453,1.453h6.561
	v15.962H41.39c-0.803,0-1.453,0.65-1.453,1.453v3.531C29.941,77.549,22.108,69.741,18.919,59.762z M56.56,92.346H42.843V78.63H56.56
	V92.346z M59.466,80.709v-3.533c0-0.803-0.65-1.453-1.453-1.453h-6.858V59.762h7.155c0.803,0,1.453-0.65,1.453-1.453v-6.859h15.985
	v6.859c0,0.803,0.65,1.453,1.453,1.453h3.281C77.295,69.746,69.463,77.552,59.466,80.709z M92.374,56.855h-13.72V43.141h13.72
	V56.855z"/>
</svg>
