<?xml version="1.0" encoding="UTF-8" standalone="no"?> <svg xmlns="http://www.w3.org/2000/svg" viewBox="0 0 223.63 223.63"><title>Teamwork</title><g id="Teamwork"><circle cx="165.33" cy="71.09" r="16.48"/><path d="M75.4,216.61l6.37-47.81L79.7,153.3l.63-.58L68.46,141.88l-.1-.1a23.17,23.17,0,0,1-3.18-28.72l-.32-.47,3.48-3.54,9.29-9.29c.66-.65,1.33-1.12,2-1.68A35.27,35.27,0,0,0,62.7,93.87H53.2a35,35,0,0,0-25,10l-9.29,9h0a17.39,17.39,0,0,0,0,24.43L36.2,153.17l-8.54,64.15a2.25,2.25,0,0,0,2.12,2.55h13A2.21,2.21,0,0,0,45,218L52,166.62a6.44,6.44,0,0,1,.83-2.42,6,6,0,0,1,11,2.39L71,218a2.21,2.21,0,0,0,2.13,1.91h2.53A8.68,8.68,0,0,1,75.4,216.61Zm-36.29-83.1L33.65,128a3.73,3.73,0,0,1,0-5.28l6.9-6.91a.53.53,0,0,1,.9.45Z"/><circle cx="57.95" cy="71.09" r="16.48"/><path d="M91.69,27l2.39.53a1.09,1.09,0,0,1,.84.86,17,17,0,0,0,1.8,4.7,1.14,1.14,0,0,1,0,1.17l-1.49,2.32A1.15,1.15,0,0,0,95.34,38l2.34,2.34a1.12,1.12,0,0,0,1.41.15l2.11-1.35a1.12,1.12,0,0,1,1.22,0A17.2,17.2,0,0,0,107,41.17a1.14,1.14,0,0,1,.79.85l.6,2.83a1.25,1.25,0,0,0,1.1,1h3.31a1.27,1.27,0,0,0,1.11-1l.53-2.49a1.18,1.18,0,0,1,.87-.9A17.12,17.12,0,0,0,120,39.67a1.12,1.12,0,0,1,1.16,0l2.3,1.47A1.13,1.13,0,0,0,124.9,41l2.34-2.34a1.12,1.12,0,0,0,.15-1.41l-1.31-2a1.12,1.12,0,0,1,0-1.22,17.1,17.1,0,0,0,2.11-4.66,1.14,1.14,0,0,1,.85-.79l2.76-.58a1.29,1.29,0,0,0,1.06-1.1V23.55a1.29,1.29,0,0,0-1.06-1.1l-2.39-.51a1.19,1.19,0,0,1-.9-.87,17.15,17.15,0,0,0-1.85-4.84,1.16,1.16,0,0,1,0-1.17l1.41-2.2a1.14,1.14,0,0,0-.16-1.41L125.6,9.11A1.13,1.13,0,0,0,124.19,9l-2,1.26a1.1,1.1,0,0,1-1.22,0,17.27,17.27,0,0,0-4.75-2.13,1.12,1.12,0,0,1-.8-.84l-.55-2.51a1.12,1.12,0,0,0-1.11-.86h-3.31a1.1,1.1,0,0,0-1.1.86L108.87,7a1.12,1.12,0,0,1-.86.86,16.91,16.91,0,0,0-4.83,1.85,1.14,1.14,0,0,1-1.17,0L99.79,8.26a1.13,1.13,0,0,0-1.41.15L96,10.75a1.13,1.13,0,0,0-.15,1.41l1.3,2a1.12,1.12,0,0,1,0,1.22,16.89,16.89,0,0,0-2.07,4.67,1.15,1.15,0,0,1-.85.8l-2.58.58a1.06,1.06,0,0,0-.82,1.1v3.31A1.08,1.08,0,0,0,91.69,27Zm20-12.08a9.81,9.81,0,1,1-9.81,9.81A9.81,9.81,0,0,1,111.64,14.9Z"/><path d="M57.77,45.46a2.43,2.43,0,0,0,.38,0,2.75,2.75,0,0,0,2.72-2.37,18.21,18.21,0,0,1,18-15.66,2.75,2.75,0,0,0,0-5.5A23.73,23.73,0,0,0,55.42,42.37,2.74,2.74,0,0,0,57.77,45.46Z"/><path d="M143.26,27.46a18.2,18.2,0,0,1,18,15.69A2.75,2.75,0,0,0,164,45.54a2.31,2.31,0,0,0,.37,0,2.75,2.75,0,0,0,2.36-3.09A23.73,23.73,0,0,0,143.26,22a2.75,2.75,0,0,0,0,5.5Z"/><path d="M138.49,191.46,133.4,153.3l5.1-4.65,12.17-11.11a17.11,17.11,0,0,0,0-24.21l0,0L141.41,104a29.91,29.91,0,0,0-2.93-2.49,35.17,35.17,0,0,0-22.08-7.65h-9.52a35.22,35.22,0,0,0-22.08,7.64,31.91,31.91,0,0,0-2.92,2.55l-9.3,9.26,0,0a17.12,17.12,0,0,0,0,24.2l12.18,11.11,5.09,4.65-5.09,38.16-3.44,25.87a2.2,2.2,0,0,0,1.9,2.47c.07,0,.15.07.21.07H96.52A2.19,2.19,0,0,0,98.63,218l7.07-51.33a6.81,6.81,0,0,1,.84-2.43,6,6,0,0,1,10.2,0,6.59,6.59,0,0,1,.84,2.41L124.65,218a2.19,2.19,0,0,0,2.12,1.91h13c.06,0,.14-.06.22-.07a2.19,2.19,0,0,0,1.9-2.45Zm-45.7-57.94-5.46-5.47a3.75,3.75,0,0,1,0-5.28l6.92-6.91a.53.53,0,0,1,.9.44Zm35.34-17.22a.53.53,0,0,1,.91-.44l6.91,6.91a3.73,3.73,0,0,1,0,5.28l-5.46,5.47Z"/><path d="M204.37,113.32v0l-9.28-9.18a35.32,35.32,0,0,0-25-10.24h-9.5a35.18,35.18,0,0,0-17,4.22c.68.57,1.35,1.12,2,1.79l12.79,12.74-.34.47a23.14,23.14,0,0,1-3.18,28.7l-.2.19-11.78,10.73.64.58-2.07,15.48,6.37,47.83a8.14,8.14,0,0,1-.22,3.27h2.54a2.21,2.21,0,0,0,2.13-1.91l7.07-51.34a6.44,6.44,0,0,1,.83-2.42,6,6,0,0,1,10.19,0,6.69,6.69,0,0,1,.85,2.39L178.33,218a2.21,2.21,0,0,0,2.12,1.91H193.5a2.21,2.21,0,0,0,2.13-2.49l-8.55-64.06,17.29-15.78A17.16,17.16,0,0,0,204.37,113.32ZM189.63,128l-5.46,5.47-2.34-17.21a.53.53,0,0,1,.9-.45l6.9,6.91A3.71,3.71,0,0,1,189.63,128Z"/><path d="M111.64,54.61h0a16.48,16.48,0,0,0,0,33h0a16.48,16.48,0,1,0,0-33Z"/></g></svg>