<?xml version="1.0" encoding="UTF-8" standalone="no"?> <svg id="Reference" xmlns="http://www.w3.org/2000/svg" viewBox="0 0 48 48"><defs><style>.cls-1{fill:#dee7f6;}.cls-2{fill:#b6cee6;}.cls-3{fill:#ffc75d;}.cls-4{fill:#ef9943;}.cls-5{fill:#ff8c07;}.cls-6{fill:#f77106;}.cls-7{fill:#fff;}.cls-8{fill:#09105a;}</style></defs><polygon class="cls-1" points="19.55 32.721 42.29 11.36 43 5 36.64 5.71 15.28 28.451 19.55 32.721"/><polygon class="cls-2" points="19.55 32.721 42.29 11.36 43 5 43 5 17.415 30.585 19.55 32.721"/><path class="cls-3" d="M16,34.831l-5.92,5.91a4.513,4.513,0,0,0-.75,1.04l-.19.39a1.5,1.5,0,0,1-2.4.39l-1.3-1.3a1.5,1.5,0,0,1,.39-2.4l.39-.19a4.513,4.513,0,0,0,1.04-.75L13.169,32Z"/><path class="cls-4" d="M6.739,42.561a1.5,1.5,0,0,0,2.4-.39l.19-.39a4.513,4.513,0,0,1,.75-1.04L16,34.831l-1.415-1.415-8.495,8.5Z"/><path class="cls-5" d="M11,30H21a1,1,0,0,1,1,1v0a3,3,0,0,1-3,3H13a3,3,0,0,1-3-3v0a1,1,0,0,1,1-1Z" transform="translate(27.314 -1.94) rotate(45.001)"/><path class="cls-6" d="M14.585,33.415l2.121,2.121a3,3,0,0,0,4.243,0,1,1,0,0,0,0-1.414l-3.536-3.536Z"/><polygon class="cls-7" points="28.45 32.721 5.71 11.36 5 5 11.36 5.71 32.72 28.451 28.45 32.721"/><polygon class="cls-1" points="28.45 32.721 30.585 30.585 5 5 5.71 11.36 28.45 32.721"/><path class="cls-3" d="M32,34.831l5.92,5.91a4.513,4.513,0,0,1,.75,1.04l.19.39a1.5,1.5,0,0,0,2.4.39l1.3-1.3a1.5,1.5,0,0,0-.39-2.4l-.39-.19a4.513,4.513,0,0,1-1.04-.75L34.831,32Z"/><path class="cls-4" d="M33.416,33.416,32,34.831l5.92,5.91a4.513,4.513,0,0,1,.75,1.04l.19.39a1.5,1.5,0,0,0,2.4.39l.65-.65Z"/><path class="cls-5" d="M29,30h6a3,3,0,0,1,3,3v0a1,1,0,0,1-1,1H27a1,1,0,0,1-1-1v0a3,3,0,0,1,3-3Z" transform="translate(77.257 32) rotate(134.999)"/><path class="cls-6" d="M30.587,30.587l-3.536,3.535a1,1,0,0,0,0,1.414,3,3,0,0,0,4.243,0l2.121-2.121Z"/><path class="cls-8" d="M42.608,37.962l-.361-.176a3.493,3.493,0,0,1-.8-.572L36.244,32a4,4,0,0,0,0-5.656,2,2,0,0,0-2.829,0l-.671.671-2.65-2.821,12.881-12.1a1,1,0,0,0,.309-.618l.71-6.36a1,1,0,0,0-1.1-1.1l-6.36.71a1.006,1.006,0,0,0-.618.309L24,17.708,12.089,5.025a1.006,1.006,0,0,0-.618-.309l-6.36-.71a1,1,0,0,0-1.1,1.1l.71,6.36a1,1,0,0,0,.309.618l12.884,12.1-2.652,2.824-.671-.671a2,2,0,0,0-2.829,0,4,4,0,0,0,0,5.656L6.564,37.2a3.5,3.5,0,0,1-.781.569l-.4.194A2.472,2.472,0,0,0,4.034,39.8a2.506,2.506,0,0,0,.7,2.168l1.3,1.3A2.508,2.508,0,0,0,7.8,44a2.441,2.441,0,0,0,.4-.033,2.474,2.474,0,0,0,1.838-1.359l.176-.362a3.508,3.508,0,0,1,.572-.8L16,36.243a4,4,0,0,0,5.657,0,2,2,0,0,0,0-2.828l-.671-.671L24,29.913l3.015,2.831-.671.671a2,2,0,0,0,0,2.828,4,4,0,0,0,5.657,0l5.2,5.193a3.5,3.5,0,0,1,.57.782l.194.4A2.472,2.472,0,0,0,39.8,43.967a2.441,2.441,0,0,0,.4.033,2.508,2.508,0,0,0,1.769-.732l1.3-1.3a2.506,2.506,0,0,0,.7-2.168A2.474,2.474,0,0,0,42.608,37.962Zm-5.491-31.3,4.75-.53-.53,4.751L28.725,22.736l-3.351-3.567ZM9.362,40.045a5.537,5.537,0,0,0-.931,1.3l-.185.381a.5.5,0,0,1-.8.13l-1.3-1.3a.5.5,0,0,1-.139-.433.48.48,0,0,1,.26-.361l.419-.2a5.547,5.547,0,0,0,1.28-.929l5.2-5.213,1.415,1.415Zm8.052-5.216-4.243-4.243a2,2,0,0,1,0-2.828l7.071,7.071A2.048,2.048,0,0,1,17.414,34.829Zm2.157-3.5-2.9-2.9,2.7-2.869,3.172,2.98ZM6.663,10.884l-.53-4.751,4.75.53L31.329,28.43l-2.9,2.9Zm21.1,23.945,7.072-7.071a2,2,0,0,1,0,2.828l-4.243,4.243A2.048,2.048,0,0,1,27.758,34.829Zm14.1,5.725-1.3,1.3a.5.5,0,0,1-.433.139.48.48,0,0,1-.361-.26l-.2-.419a5.574,5.574,0,0,0-.929-1.281l-5.212-5.2,1.415-1.415,5.215,5.226a5.6,5.6,0,0,0,1.3.93l.381.185a.487.487,0,0,1,.269.366A.5.5,0,0,1,41.854,40.554Z"/></svg>